<svg xmlns="http://www.w3.org/2000/svg" viewBox="0 0 435.99 312.02"><defs><style>.cls-1,.cls-3,.cls-4,.cls-5{opacity:0.28;}.cls-2{fill:#534741;}.cls-3{fill:#d9e021;}.cls-4{fill:#ccc;}.cls-5{fill:#a67c52;}</style></defs><g id="레이어_2" data-name="레이어 2"><g id="레이어_1-2" data-name="레이어 1"><g class="cls-1"><path class="cls-2" d="M40.51,28.84,25.77,33.5,16.39,44.7l-3-15.43L0,22.4l12.51-6.95L13.63,0,24.39,11.14,38.45,8.46l-5,11.81a4.37,4.37,0,0,0,.14,3.85Z"/></g><g class="cls-1"><path class="cls-2" d="M436,62.55l-22.82,7-13.83,19.1L393.28,61l-21.62-13.3,19.13-11.28.47-27.32,17.88,20.67,21.91-3.59-6.9,20.54a8.77,8.77,0,0,0,.55,6.84Z"/></g><path class="cls-3" d="M75.74,223.23c24.13,3.18,41.17,24.85,38.86,42.39s-18.91-7.46-43-10.65-33-58.06-30.7-75.59S51.62,220.05,75.74,223.23Z"/><path class="cls-4" d="M334.49,223.92c20.63,30.13,14.07,70.51-7.32,85.15s-10.77-28.51-31.4-58.64,30.21-94,51.6-108.66S313.86,193.78,334.49,223.92Z"/><path class="cls-5" d="M178.46,87.8c0,23.48-13.44,42.51-25.77,42.51s3.44-19,3.44-42.51,37.14-38.89,49.47-38.89S178.46,64.33,178.46,87.8Z"/></g></g></svg>